<svg width="300" height="300" viewBox="0 0 300 300" fill="none" xmlns="http://www.w3.org/2000/svg">
<path d="M150 199.5C195.287 199.5 232 162.787 232 117.5C232 72.2127 195.287 35.5 150 35.5C104.713 35.5 68 72.2127 68 117.5C68 162.787 104.713 199.5 150 199.5Z" fill="#FDF5DD"/>
<path d="M131.875 20C129.178 20.0329 126.603 21.1273 124.708 23.046C122.813 24.9647 121.75 27.5531 121.75 30.25V247.085L132 247.21V20H131.875Z" fill="#8784E1"/>
<path d="M132.065 20H132V244.21L142.25 244.335V30.25C142.251 27.5424 141.181 24.9443 139.272 23.0236C137.364 21.1029 134.773 20.0159 132.065 20Z" fill="#ADB7EB"/>
<path d="M114.5 159.9V154.86C111.037 154.372 107.866 152.652 105.569 150.014C103.273 147.375 102.006 143.997 102 140.5V86C102 84.7605 101.54 83.5651 100.708 82.6459C99.8766 81.7266 98.7333 81.149 97.5 81.025C97.33 81.025 97.165 81 97 81V140.5C96.9993 145.326 98.7881 149.981 102.021 153.564C105.253 157.148 109.7 159.405 114.5 159.9Z" fill="#ADB7EB"/>
<path d="M102 86.0004V140.5C102.006 143.998 103.273 147.376 105.569 150.014C107.866 152.652 111.037 154.373 114.5 154.86V149.785C112.377 149.328 110.474 148.157 109.11 146.468C107.745 144.778 107 142.672 107 140.5V91.0004C106.997 88.4369 106.009 85.9726 104.241 84.1163C102.473 82.26 100.06 81.1536 97.5 81.0254C98.7333 81.1493 99.8766 81.727 100.708 82.6462C101.54 83.5655 102 84.7609 102 86.0004Z" fill="#8784E1"/>
<path d="M92 86V140.5C92.0078 146.648 94.3249 152.57 98.492 157.091C102.659 161.612 108.372 164.402 114.5 164.91V159.91C109.698 159.415 105.25 157.156 102.017 153.57C98.7846 149.985 96.9968 145.328 97 140.5V81C96.825 81 96.66 81 96.5 81.025C95.2667 81.149 94.1234 81.7266 93.2919 82.6459C92.4604 83.5651 92 84.7605 92 86Z" fill="#8784E1"/>
<path d="M92 140.5V86.0004C92 84.7609 92.4604 83.5655 93.2919 82.6462C94.1234 81.727 95.2667 81.1493 96.5 81.0254C93.9398 81.1536 91.5265 82.26 89.7586 84.1163C87.9907 85.9726 87.0032 88.4369 87 91.0004V140.5C87.0101 147.974 89.8534 155.167 94.9567 160.627C100.06 166.088 107.044 169.41 114.5 169.925V164.925C108.37 164.418 102.655 161.625 98.487 157.101C94.3194 152.576 92.0041 146.651 92 140.5Z" fill="#745BD7"/>
<path d="M114.5 246L121.75 246.085V30.25C121.75 27.5531 122.813 24.9647 124.708 23.046C126.603 21.1273 129.178 20.0329 131.875 20C122.215 20.075 114.5 28.08 114.5 37.92V246Z" fill="#745BD7"/>
<path d="M149.5 110.4V115.4C155.626 114.892 161.338 112.103 165.505 107.584C169.672 103.066 171.99 97.1468 172 91V51.5C172.006 50.2562 171.549 49.0547 170.717 48.1301C169.884 47.2056 168.738 46.6244 167.5 46.5C167.33 46.5 167.165 46.5 167 46.5V91C167.001 95.8259 165.212 100.481 161.979 104.064C158.747 107.648 154.3 109.905 149.5 110.4Z" fill="#ADB7EB"/>
<path d="M162 51.5V91C161.994 94.4975 160.727 97.8755 158.431 100.514C156.134 103.152 152.963 104.872 149.5 105.36V110.4C154.3 109.905 158.747 107.648 161.979 104.064C165.212 100.481 167.001 95.8259 167 91V46.5C166.825 46.5 166.66 46.5 166.5 46.5C165.262 46.6244 164.116 47.2056 163.283 48.1301C162.451 49.0547 161.994 50.2562 162 51.5Z" fill="#8784E1"/>
<path d="M167.5 46.5254C168.738 46.6498 169.884 47.231 170.717 48.1555C171.549 49.0801 172.006 50.2816 172 51.5254V91.0254C171.992 97.1739 169.675 103.095 165.508 107.616C161.341 112.137 155.628 114.928 149.5 115.435V120.435C156.958 119.92 163.943 116.596 169.047 111.134C174.15 105.671 176.992 98.4761 177 91.0004V56.5004C176.997 53.9369 176.009 51.4726 174.241 49.6163C172.474 47.76 170.06 46.6536 167.5 46.5254Z" fill="#8784E1"/>
<path d="M162 91V51.5C161.994 50.2562 162.451 49.0547 163.283 48.1301C164.116 47.2056 165.262 46.6244 166.5 46.5C163.935 46.6284 161.519 47.7384 159.75 49.6C157.981 51.4616 156.997 53.9322 157 56.5V91C157 93.1718 156.255 95.2779 154.89 96.9674C153.526 98.6569 151.623 99.8278 149.5 100.285V105.36C152.963 104.872 156.134 103.152 158.431 100.514C160.727 97.8755 161.994 94.4975 162 91Z" fill="#745BD7"/>
<path d="M149.5 37.4999C149.5 33.0605 147.812 28.7871 144.779 25.5452C141.746 22.3034 137.595 20.3354 133.165 20.0399C132.795 20.0399 132.43 20.0049 132.065 20.0049C134.772 20.0207 137.362 21.1071 139.271 23.0267C141.179 24.9463 142.25 27.5431 142.25 30.2499V245.335L149.5 245.42V37.4999Z" fill="#8784E1"/>
<path d="M198.13 251.145C193.09 245.195 187.25 240.76 181.585 238.145C182.668 242.024 184.275 245.738 186.36 249.185C186.8 249.925 190.26 249.66 190.75 250.395L198.355 251.395L198.13 251.145Z" fill="#F49D71"/>
<path d="M200 245.835C197 236.475 192.695 228.37 188 222.415C187.66 229.995 188.92 239.08 191.94 248.44C192.265 249.44 192.61 250.44 192.965 251.44H198.11C197.655 249.575 200.625 247.715 200 245.835Z" fill="#F5AD89"/>
<path d="M204 245.825C204 234.325 202.14 223.745 199.035 215.42C195.93 223.745 194.065 234.315 194.065 245.825C194.065 247.72 194.12 249.585 194.22 251.42L203.845 249.42C203.955 247.585 204 247.72 204 245.825Z" fill="#F49D71"/>
<path d="M215.14 222.16C208.895 228.945 202.56 238.34 197.225 249.33C196.892 250.03 196.558 250.727 196.225 251.42L203.615 249.42C203.775 249.075 205.935 250.73 206.115 250.38C210.735 240.315 213.78 230.525 215.14 222.16Z" fill="#F5AD89"/>
<path d="M217.5 244C213.035 245.315 209.135 247.155 204.305 250.42L212.19 250.92C214.173 248.785 215.95 246.468 217.5 244Z" fill="#F49D71"/>
<path d="M163.875 245.92C163.876 246.32 163.798 246.716 163.645 247.086C163.492 247.456 163.268 247.792 162.985 248.075C161.752 249.31 160.288 250.289 158.677 250.958C157.065 251.626 155.337 251.971 153.593 251.971C151.848 251.971 150.12 251.626 148.508 250.958C146.897 250.289 145.433 249.31 144.2 248.075C142.85 246.729 141.021 245.974 139.115 245.974C137.209 245.974 135.38 246.729 134.03 248.075C131.537 250.563 128.159 251.96 124.638 251.96C121.116 251.96 117.738 250.563 115.245 248.075C113.897 246.727 112.069 245.97 110.163 245.97C108.256 245.97 106.428 246.727 105.08 248.075C104.501 248.61 103.738 248.9 102.95 248.884C102.162 248.869 101.411 248.549 100.853 247.991C100.296 247.434 99.9761 246.683 99.9606 245.895C99.9451 245.107 100.235 244.343 100.77 243.765C103.261 241.274 106.64 239.875 110.163 239.875C113.685 239.875 117.064 241.274 119.555 243.765C120.903 245.112 122.731 245.869 124.638 245.869C126.544 245.869 128.372 245.112 129.72 243.765C132.215 241.279 135.593 239.883 139.115 239.883C142.637 239.883 146.015 241.279 148.51 243.765C149.177 244.434 149.969 244.964 150.841 245.327C151.713 245.689 152.648 245.875 153.593 245.875C154.537 245.875 155.472 245.689 156.344 245.327C157.216 244.964 158.008 244.434 158.675 243.765C159.101 243.338 159.644 243.047 160.235 242.93C160.826 242.812 161.439 242.872 161.996 243.103C162.553 243.334 163.028 243.725 163.363 244.226C163.698 244.727 163.876 245.317 163.875 245.92Z" fill="#745BD7"/>
<path d="M183.855 250.69C183.854 250.489 183.894 250.291 183.971 250.107C184.049 249.922 184.162 249.755 184.305 249.615C185.55 248.369 187.239 247.67 189 247.67C190.761 247.67 192.45 248.369 193.695 249.615C194.371 250.287 195.285 250.664 196.237 250.664C197.19 250.664 198.104 250.287 198.78 249.615C200.026 248.371 201.714 247.672 203.475 247.672C205.236 247.672 206.924 248.371 208.17 249.615C208.846 250.287 209.76 250.664 210.712 250.664C211.665 250.664 212.579 250.287 213.255 249.615C213.541 249.329 213.928 249.168 214.332 249.168C214.737 249.168 215.124 249.329 215.41 249.615C215.696 249.9 215.856 250.288 215.856 250.692C215.856 251.096 215.696 251.484 215.41 251.77C214.164 253.015 212.474 253.715 210.712 253.715C208.951 253.715 207.261 253.015 206.015 251.77C205.682 251.436 205.286 251.171 204.85 250.99C204.414 250.81 203.947 250.717 203.475 250.717C203.003 250.717 202.536 250.81 202.1 250.99C201.664 251.171 201.268 251.436 200.935 251.77C199.688 253.014 197.999 253.713 196.237 253.713C194.476 253.713 192.787 253.014 191.54 251.77C191.207 251.435 190.811 251.17 190.375 250.989C189.939 250.808 189.472 250.714 189 250.714C188.528 250.714 188.061 250.808 187.625 250.989C187.189 251.17 186.793 251.435 186.46 251.77C186.246 251.981 185.974 252.125 185.678 252.182C185.383 252.24 185.077 252.21 184.799 252.094C184.521 251.979 184.283 251.784 184.115 251.534C183.947 251.284 183.857 250.991 183.855 250.69Z" fill="#EE6C2B"/>
<path d="M206.015 53.1797L212.17 76.1497L228.985 59.3347L206.015 53.1797Z" fill="#FBEAB6"/>
<path d="M59.3623 48.3821L50.9124 56.832L59.3623 65.282L67.8122 56.832L59.3623 48.3821Z" fill="#FBDED0"/>
<path d="M197.364 135.587L182.95 150.001L197.364 164.415L211.779 150.001L197.364 135.587Z" fill="#ADB7EB"/>
<path d="M223.985 42.1099C225.774 42.1099 227.225 40.6593 227.225 38.8699C227.225 37.0805 225.774 35.6299 223.985 35.6299C222.196 35.6299 220.745 37.0805 220.745 38.8699C220.745 40.6593 222.196 42.1099 223.985 42.1099Z" fill="#8784E1"/>
<path d="M111.235 40L113.305 47.725L118.96 42.07L111.235 40Z" fill="#4528A4"/>
<path d="M137.955 18.3096L140.025 26.0396L145.685 20.3796L137.955 18.3096Z" fill="#8784E1"/>
<path d="M128.015 97.6299L130.085 105.36L135.74 99.6999L128.015 97.6299Z" fill="#D6E0F5"/>
<path d="M83.735 107.13L85.805 114.86L91.46 109.205L83.735 107.13Z" fill="#4528A4"/>
<path d="M110.635 195.635L112.705 203.365L118.365 197.705L110.635 195.635Z" fill="#4528A4"/>
<path d="M117.885 138.31L119.955 146.04L125.615 140.38L117.885 138.31Z" fill="#4528A4"/>
<path d="M173.115 56.8301L175.185 64.5601L180.84 58.9001L173.115 56.8301Z" fill="#745BD7"/>
<path d="M158.79 85.0195L160.86 92.7445L166.515 87.0895L158.79 85.0195Z" fill="#4528A4"/>
<path d="M138.385 60.0947L140.455 67.8247L146.115 62.1697L138.385 60.0947Z" fill="#D6E0F5"/>
<path d="M146.235 166.66L148.305 174.385L153.96 168.73L146.235 166.66Z" fill="#745BD7"/>
</svg>
